<svg width="16" height="16" viewBox="0 0 16 16" fill="none" xmlns="http://www.w3.org/2000/svg">
<g clip-path="url(#clip0_64_459)">
<path d="M13.8886 1.11129L14.6386 1.11129L14.6386 0.361294L13.8886 0.361294L13.8886 1.11129ZM0.579904 13.3594C0.287011 13.6523 0.287011 14.1271 0.579904 14.42C0.872797 14.7129 1.34767 14.7129 1.64056 14.42L0.579904 13.3594ZM14.6386 11.334L14.6386 1.11129L13.1386 1.11129L13.1386 11.334L14.6386 11.334ZM13.8886 0.361294L3.66591 0.361294L3.66591 1.86129L13.8886 1.86129L13.8886 0.361294ZM13.3583 0.580964L0.579904 13.3594L1.64056 14.42L14.419 1.64162L13.3583 0.580964Z" fill="#33363F"/>
</g>
<defs>
<clipPath id="clip0_64_459">
<rect width="15" height="15" fill="white" transform="translate(0.0859375 0.374512)"/>
</clipPath>
</defs>
</svg>
